<svg width="48" height="48" viewBox="0 0 48 48" fill="none" xmlns="http://www.w3.org/2000/svg">
<g clip-path="url(#clip0_173_1619)">
<path d="M42.9492 12.6299C41.9551 13.1108 41.5391 14.3071 42.02 15.3008C43.334 18.0151 44 20.9409 44 24C44 35.0278 35.0278 44 24 44C12.9722 44 4 35.0278 4 24C4 12.9722 12.9722 4 24 4C28.5698 4 32.8628 5.49219 36.416 8.31494C37.2778 9.00293 38.5381 8.85889 39.2261 7.99414C39.9141 7.12988 39.77 5.87109 38.9048 5.18408C34.6982 1.84082 29.4048 0 24 0C10.7671 0 0 10.7671 0 24C0 37.2329 10.7671 48 24 48C37.2329 48 48 37.2329 48 24C48 20.333 47.1992 16.8188 45.6201 13.5591C45.1401 12.563 43.9399 12.1479 42.9492 12.6299Z" fill="#FF5555"/>
<path d="M24 8C22.896 8 22 8.896 22 10V24C22 25.104 22.896 26 24 26H34C35.104 26 36 25.104 36 24C36 22.896 35.104 22 34 22H26V10C26 8.896 25.104 8 24 8Z" fill="#FF5555"/>
</g>
<defs>
<clipPath id="clip0_173_1619">
<rect width="48" height="48" fill="white"/>
</clipPath>
</defs>
</svg>
