<svg width="57" height="57" viewBox="0 0 57 57" fill="none" xmlns="http://www.w3.org/2000/svg">
<g clip-path="url(#clip0_173_1463)">
<path d="M57 16.7647V13.4118H53.6471V3.35294H43.5882V0H40.2353V3.35294H36.8824V0H33.5294V3.35294H30.1765V0H26.8235V3.35294H23.4706V0H20.1176V3.35294H16.7647V0H13.4118V3.35294H3.35294V13.4118H0V16.7647H3.35294V20.1176H0V23.4706H3.35294V26.8235H0V30.1765H3.35294V33.5294H0V36.8824H3.35294V40.2353H0V43.5882H3.35294V53.6471H13.4118V57H16.7647V53.6471H20.1176V57H23.4706V53.6471H26.8235V57H30.1765V53.6471H33.5294V57H36.8824V53.6471H40.2353V57H43.5882V53.6471H53.6471V43.5882H57V40.2353H53.6471V36.8824H57V33.5294H53.6471V30.1765H57V26.8235H53.6471V23.4706H57V20.1176H53.6471V16.7647H57ZM50.2941 20.1176H46.9412V23.4706H50.2941V26.8235H46.9412V30.1765H50.2941V33.5294H46.9412V36.8824H50.2941V40.2353H46.9412V43.5882H50.2941V50.2941H43.5882V46.9412H40.2353V50.2941H36.8824V46.9412H33.5294V50.2941H30.1765V46.9412H26.8235V50.2941H23.4706V46.9412H20.1176V50.2941H16.7647V46.9412H13.4118V50.2941H6.70588V43.5882H10.0588V40.2353H6.70588V36.8824H10.0588V33.5294H6.70588V30.1765H10.0588V26.8235H6.70588V23.4706H10.0588V20.1176H6.70588V16.7647H10.0588V13.4118H6.70588V6.70588H13.4118V10.0588H16.7647V6.70588H20.1176V10.0588H23.4706V6.70588H26.8235V10.0588H30.1765V6.70588H33.5294V10.0588H36.8824V6.70588H40.2353V10.0588H43.5882V6.70588H50.2941V13.4118H46.9412V16.7647H50.2941V20.1176Z" fill="#FF5555"/>
<path d="M28.5007 20.3093C25.9008 18.0086 21.9221 18.0961 19.4259 20.5926C16.8347 23.1838 16.8345 27.3774 19.4259 29.9688L28.5007 39.0436L37.5756 29.9688C40.1667 27.3776 40.1669 23.184 37.5756 20.5926C35.0814 18.0983 31.1024 18.0069 28.5007 20.3093ZM35.2047 27.5979L28.5007 34.3019L21.7967 27.5979C20.5161 26.3173 20.5159 24.2443 21.7967 22.9635C23.0773 21.683 25.15 21.6826 26.4312 22.9636L28.5007 25.033L30.5705 22.9635C31.8511 21.6828 33.924 21.6827 35.2048 22.9635C36.4853 24.2441 36.4855 26.3171 35.2047 27.5979Z" fill="#FF5555"/>
<path d="M13.4121 40.2353H16.7651V43.5883H13.4121V40.2353Z" fill="#FF5555"/>
<path d="M20.1172 40.2353H23.4701V43.5883H20.1172V40.2353Z" fill="#FF5555"/>
<path d="M40.2344 13.4118H43.5873V16.7647H40.2344V13.4118Z" fill="#FF5555"/>
<path d="M40.2344 40.2353H43.5873V43.5883H40.2344V40.2353Z" fill="#FF5555"/>
</g>
<defs>
<clipPath id="clip0_173_1463">
<rect width="57" height="57" fill="white"/>
</clipPath>
</defs>
</svg>
