<svg width="22" height="23" viewBox="0 0 22 23" fill="none" xmlns="http://www.w3.org/2000/svg">
<path d="M6.48 18.1003C5.292 18.1003 4.3308 19.0723 4.3308 20.2603C4.3308 21.4483 5.292 22.4203 6.48 22.4203C7.668 22.4203 8.64 21.4483 8.64 20.2603C8.64 19.0723 7.668 18.1003 6.48 18.1003ZM0 0.820312V2.98031H2.16L6.048 11.1775L4.59 13.8235C4.4172 14.1259 4.32 14.4823 4.32 14.8603C4.32 16.0483 5.292 17.0203 6.48 17.0203H19.44V14.8603H6.9336C6.7824 14.8603 6.6636 14.7415 6.6636 14.5903L6.696 14.4607L7.668 12.7003H15.714C16.524 12.7003 17.2368 12.2575 17.604 11.5879L21.4704 4.57871C21.5568 4.42751 21.6 4.24391 21.6 4.06031C21.6 3.46631 21.114 2.98031 20.52 2.98031H4.5468L3.5316 0.820312H0ZM17.28 18.1003C16.092 18.1003 15.1308 19.0723 15.1308 20.2603C15.1308 21.4483 16.092 22.4203 17.28 22.4203C18.468 22.4203 19.44 21.4483 19.44 20.2603C19.44 19.0723 18.468 18.1003 17.28 18.1003Z" fill="black"/>
</svg>
