<svg width="19" height="18" viewBox="0 0 19 18" fill="none" xmlns="http://www.w3.org/2000/svg">
<path d="M13.8508 0.600098C12.2848 0.600098 10.7818 1.34168 9.80078 2.51356C8.81978 1.34168 7.31678 0.600098 5.75078 0.600098C2.97878 0.600098 0.800781 2.81568 0.800781 5.63552C0.800781 9.09623 3.86078 11.9161 8.49578 16.2008L9.80078 17.4001L11.1058 16.1916C15.7408 11.9161 18.8008 9.09623 18.8008 5.63552C18.8008 2.81568 16.6228 0.600098 13.8508 0.600098ZM9.89078 14.8366L9.80078 14.9282L9.71078 14.8366C5.42678 10.8907 2.60078 8.28141 2.60078 5.63552C2.60078 3.80446 3.95078 2.43116 5.75078 2.43116C7.13678 2.43116 8.48678 3.33754 8.96378 4.59181H10.6468C11.1148 3.33754 12.4648 2.43116 13.8508 2.43116C15.6508 2.43116 17.0008 3.80446 17.0008 5.63552C17.0008 8.28141 14.1748 10.8907 9.89078 14.8366Z" fill="black"/>
</svg>
