<svg width="21" height="21" viewBox="0 0 21 21" fill="none" xmlns="http://www.w3.org/2000/svg">
<path d="M10.5 13.3935C11.7189 13.3964 12.9113 13.0301 13.9262 12.341C14.941 11.6519 15.7326 10.6711 16.201 9.52262C16.6694 8.37414 16.7934 7.10966 16.5573 5.88924C16.3212 4.66882 15.7356 3.54731 14.8747 2.66668C14.0137 1.78605 12.9162 1.18589 11.7209 0.94216C10.5256 0.69843 9.2863 0.822089 8.15989 1.29748C7.03348 1.77288 6.07053 2.57865 5.39304 3.61278C4.71555 4.64692 4.35399 5.86294 4.35398 7.10692C4.35398 8.77176 5.001 10.3686 6.1532 11.5472C7.3054 12.7257 8.86869 13.3897 10.5 13.3935ZM10.5 2.67771C11.359 2.67488 12.1994 2.93225 12.915 3.41721C13.6305 3.90218 14.1889 4.59293 14.5195 5.40201C14.8502 6.21109 14.9382 7.1021 14.7723 7.96222C14.6064 8.82234 14.1942 9.61289 13.5878 10.2338C12.9814 10.8546 12.208 11.2779 11.3658 11.4499C10.5235 11.622 9.65032 11.5351 8.85647 11.2003C8.06262 10.8655 7.38386 10.2978 6.90635 9.56913C6.42884 8.84045 6.17405 7.98354 6.17405 7.10692C6.17404 5.93469 6.62935 4.81027 7.44024 3.98004C8.25112 3.14981 9.35139 2.68149 10.5 2.67771ZM13.342 14.0136C13.1945 13.9659 13.0374 13.9571 12.8856 13.988C12.7338 14.019 12.5923 14.0888 12.474 14.1908L10.5 15.9053L8.52595 14.1908C8.40775 14.0888 8.26623 14.019 8.11443 13.988C7.96263 13.9571 7.80552 13.9659 7.65796 14.0136C6.36996 14.4294 4.29615e-06 16.6654 4.29615e-06 19.8888C-0.000364131 20.011 0.0229678 20.132 0.0685345 20.245C0.114101 20.358 0.181042 20.4607 0.26558 20.5473C0.350118 20.6338 0.450475 20.7025 0.561064 20.7493C0.671653 20.7962 0.790299 20.8203 0.910038 20.8203H20.09C20.2097 20.8203 20.3283 20.7962 20.4389 20.7493C20.5495 20.7025 20.6499 20.6338 20.7344 20.5473C20.819 20.4607 20.8859 20.358 20.9315 20.245C20.977 20.132 21.0004 20.011 21 19.8888C21 16.6683 14.63 14.4308 13.342 14.0151V14.0136ZM2.31004 18.9586C3.90752 17.6059 5.74773 16.5834 7.72803 15.9482L9.91194 17.8342C10.0758 17.9772 10.2844 18.0559 10.5 18.0559C10.7156 18.0559 10.9242 17.9772 11.0881 17.8342L13.272 15.9482C15.2523 16.5834 17.0925 17.6059 18.69 18.9586H2.31004Z" fill="black"/>
</svg>
