<svg width="54" height="54" viewBox="0 0 54 54" fill="none" xmlns="http://www.w3.org/2000/svg">
<g clip-path="url(#clip0_173_1597)">
<path d="M44.1547 29.5268L47.7392 25.998L46.0366 21.2662L47.7392 16.5343L44.1547 13.0056L43.6274 8.00539L38.8695 6.38276L36.2311 2.10136L31.2375 2.70422L27.0005 0L22.7635 2.70422L17.7699 2.10136L15.1316 6.38265L10.3736 8.00529L9.84618 13.0056L6.26172 16.5343L7.9643 21.2662L6.26172 25.998L9.84618 29.5267L10.3735 34.5271L13.0152 35.428L8.48753 49.5799L16.2386 49.1536L22.303 54L26.1464 41.9872L27.0005 42.5324L27.8545 41.9872L31.6979 54L37.7622 49.1536L45.5133 49.5799L40.9856 35.428L43.6272 34.5271L44.1547 29.5268ZM20.6879 48.6555L17.2716 45.9253L12.9049 46.1654L15.7751 37.1942L17.7697 40.431L22.7634 39.8282L23.3851 40.225L20.6879 48.6555ZM36.7293 45.9253L33.313 48.6555L30.6157 40.225L31.2375 39.8282L36.231 40.431L38.2257 37.1942L41.0959 46.1654L36.7293 45.9253ZM40.6901 32.1828L36.7702 33.5197L34.5983 37.044L30.4904 36.5481L27.0005 38.7756L23.5105 36.5482L19.4025 37.0441L17.2306 33.5197L13.3107 32.1828L12.8765 28.0661L9.92771 25.1632L11.3299 21.2662L9.92771 17.3692L12.8765 14.4662L13.3107 10.3494L17.2306 9.01262L19.4025 5.48828L23.5104 5.98419L27.0005 3.7569L30.4904 5.9843L34.5984 5.48838L36.7704 9.01283L40.6902 10.3496L41.1244 14.4664L44.0732 17.3693L42.671 21.2663L44.0732 25.1633L41.1244 28.0663L40.6901 32.1828Z" fill="#FF5555"/>
<path d="M26.9992 8.94275C20.204 8.94275 14.6758 14.471 14.6758 21.2662C14.6758 28.0615 20.204 33.5895 26.9992 33.5895C33.7943 33.5895 39.3226 28.0613 39.3226 21.2661C39.3226 14.471 33.7943 8.94275 26.9992 8.94275ZM26.9992 30.4227C21.9503 30.4227 17.8426 26.315 17.8426 21.2661C17.8426 16.2171 21.9503 12.1096 26.9992 12.1096C32.0481 12.1096 36.1558 16.2172 36.1558 21.2661C36.1558 26.3151 32.0481 30.4227 26.9992 30.4227Z" fill="#FF5555"/>
</g>
<defs>
<clipPath id="clip0_173_1597">
<rect width="54" height="54" fill="white"/>
</clipPath>
</defs>
</svg>
