<svg width="21" height="22" viewBox="0 0 21 22" fill="none" xmlns="http://www.w3.org/2000/svg">
<path d="M15 14.0203H14.052L13.716 13.6963C14.892 12.3283 15.6 10.5523 15.6 8.62031C15.6 4.31231 12.108 0.820312 7.8 0.820312C3.492 0.820312 0 4.31231 0 8.62031C0 12.9283 3.492 16.4203 7.8 16.4203C9.732 16.4203 11.508 15.7123 12.876 14.5363L13.2 14.8723V15.8203L19.2 21.8083L20.988 20.0203L15 14.0203ZM7.8 14.0203C4.812 14.0203 2.4 11.6083 2.4 8.62031C2.4 5.63231 4.812 3.22031 7.8 3.22031C10.788 3.22031 13.2 5.63231 13.2 8.62031C13.2 11.6083 10.788 14.0203 7.8 14.0203Z" fill="black"/>
</svg>
