<svg width="59" height="59" viewBox="0 0 59 59" fill="none" xmlns="http://www.w3.org/2000/svg">
<path d="M45.5911 13.4092C43.3732 13.4092 41.5684 15.2141 41.5684 17.4319C41.5684 19.6498 43.3733 21.4546 45.5911 21.4546C47.809 21.4546 49.6138 19.6497 49.6138 17.4319C49.6138 15.214 47.809 13.4092 45.5911 13.4092ZM45.5911 18.7728C44.8509 18.7728 44.2502 18.172 44.2502 17.4319C44.2502 16.6917 44.8509 16.091 45.5911 16.091C46.3312 16.091 46.9319 16.6917 46.9319 17.4319C46.9321 18.172 46.3313 18.7728 45.5911 18.7728Z" fill="#FF5555"/>
<path d="M46.9327 28.1591C47.6732 28.1591 48.2735 27.5588 48.2735 26.8183C48.2735 26.0777 47.6732 25.4774 46.9327 25.4774C46.1921 25.4774 45.5918 26.0777 45.5918 26.8183C45.5918 27.5588 46.1921 28.1591 46.9327 28.1591Z" fill="#FF5555"/>
<path d="M18.7725 28.1591C19.513 28.1591 20.1134 27.5588 20.1134 26.8183C20.1134 26.0777 19.513 25.4774 18.7725 25.4774C18.032 25.4774 17.4316 26.0777 17.4316 26.8183C17.4316 27.5588 18.032 28.1591 18.7725 28.1591Z" fill="#FF5555"/>
<path d="M46.9327 33.5226C47.6732 33.5226 48.2735 32.9222 48.2735 32.1817C48.2735 31.4411 47.6732 30.8408 46.9327 30.8408C46.1921 30.8408 45.5918 31.4411 45.5918 32.1817C45.5918 32.9222 46.1921 33.5226 46.9327 33.5226Z" fill="#FF5555"/>
<path d="M46.9327 38.8862C47.6732 38.8862 48.2735 38.2859 48.2735 37.5453C48.2735 36.8048 47.6732 36.2045 46.9327 36.2045C46.1921 36.2045 45.5918 36.8048 45.5918 37.5453C45.5918 38.2859 46.1921 38.8862 46.9327 38.8862Z" fill="#FF5555"/>
<path d="M59 20.1135V12.068C59 11.3265 58.4007 10.7271 57.6591 10.7271H54.7306C54.1755 9.17033 52.7005 8.0453 50.9546 8.0453H46.9319V5.36345C46.9319 4.62192 46.3325 4.02258 45.591 4.02258C44.8494 4.02258 44.2501 4.62192 44.2501 5.36345V8.0453H20.1136V5.36345C20.1136 4.62192 19.5142 4.02258 18.7727 4.02258C18.0312 4.02258 17.4318 4.62192 17.4318 5.36345V8.0453H12.9988C11.0237 8.0453 9.35553 9.45992 9.03103 11.4069L8.50407 14.5661C8.19973 16.3965 8.04543 18.2616 8.04543 20.1135C8.04543 21.9653 8.19962 23.8305 8.50533 25.6621L8.65825 26.5793C9.17047 29.6539 11.6981 31.904 14.7593 32.1374C14.758 32.1521 14.75 32.1655 14.75 32.1816C14.75 32.9231 15.3493 33.5225 16.0909 33.5225V37.5452C16.0909 38.2867 16.6902 38.8861 17.4317 38.8861C18.1733 38.8861 18.7726 38.2867 18.7726 37.5452V33.5225C19.5141 33.5225 20.1135 32.9231 20.1135 32.1816C22.3314 32.1816 24.1362 30.3767 24.1362 28.1589V24.1362C24.1362 23.396 24.7369 22.7953 25.4771 22.7953H36.2043C36.9445 22.7953 37.5452 23.396 37.5452 24.1362V37.5453C37.5452 38.2868 38.1445 38.8862 38.8861 38.8862C39.6276 38.8862 40.2269 38.2868 40.2269 37.5453V24.1363C40.2269 21.9184 38.422 20.1136 36.2042 20.1136H25.4769C25.0049 20.1136 24.557 20.2101 24.1361 20.3603V18.7727C24.1361 18.0312 23.5367 17.4318 22.7952 17.4318C22.0537 17.4318 21.4543 18.0312 21.4543 18.7727V28.1591C21.4543 28.8993 20.8536 29.5 20.1135 29.5H15.2714C13.2963 29.5 11.6282 28.0854 11.3037 26.137L11.1508 25.2198C10.8691 23.5357 10.7271 21.818 10.7271 20.1137C10.7271 18.4094 10.8691 16.6917 11.1494 15.0061L11.6764 11.847C11.7836 11.1994 12.3401 10.7274 12.9984 10.7274H50.9542C51.6944 10.7274 52.2951 11.3281 52.2951 12.0682V18.7755C52.2951 21.5283 52.5687 24.2946 53.109 27.0005L55.5548 39.2309C56.0616 41.7625 56.3178 44.3518 56.3178 46.9291V50.9544C56.3178 51.6946 55.7171 52.2953 54.9769 52.2953H4.02272C3.28257 52.2953 2.68185 51.6946 2.68185 50.9544V48.2726C2.68185 46.0547 4.48677 44.2499 6.70457 44.2499H52.2954C53.037 44.2499 53.6363 43.6505 53.6363 42.909C53.6363 42.1675 53.037 41.5681 52.2954 41.5681H6.70457C3.00762 41.568 0 44.5757 0 48.2726V50.9544C0 53.1723 1.80492 54.9771 4.02272 54.9771H54.9773C57.1952 54.9771 59 53.1722 59 50.9544V46.9291C59 44.1762 58.7264 41.4099 58.1861 38.704L55.7402 26.4736C55.4103 24.8189 55.1971 23.1387 55.0818 21.4545H57.659C58.4007 21.4544 59 20.855 59 20.1135ZM56.3181 18.7726H54.9773V13.409H56.3181V18.7726Z" fill="#FF5555"/>
</svg>
