<svg width="140" height="25" viewBox="0 0 140 25" fill="none" xmlns="http://www.w3.org/2000/svg">
<g clip-path="url(#clip0_6901_2)">
<path d="M24.9249 7.34634C24.864 6.01578 24.6527 5.10712 24.3437 4.31213C24.0299 3.47805 23.5378 2.72255 22.9019 2.09808C22.2776 1.46217 21.5219 0.969887 20.6879 0.655937C19.8927 0.347137 18.9842 0.135994 17.6537 0.075531C16.3206 0.0144958 15.8947 0 12.5 0C9.1053 0 8.67939 0.0144958 7.34634 0.0751495C6.01578 0.135994 5.10731 0.347328 4.31213 0.656319C3.47805 0.970078 2.72255 1.46217 2.09808 2.09808C1.46217 2.72236 0.969887 3.47786 0.655937 4.31194C0.347137 5.10712 0.135994 6.01578 0.075531 7.34615C0.0144958 8.67939 0 9.10511 0 12.4998C0 15.8947 0.0144958 16.3206 0.075531 17.6537C0.136185 18.984 0.347519 19.8927 0.656509 20.6879C0.970268 21.5218 1.46236 22.2775 2.09827 22.9017C2.72255 23.5376 3.47824 24.0297 4.31232 24.3435C5.10731 24.6527 6.01597 24.8638 7.34653 24.9247C8.67977 24.9855 9.10549 24.9998 12.5002 24.9998C15.8949 24.9998 16.3208 24.9855 17.6538 24.9247C18.9844 24.8638 19.8929 24.6527 20.6881 24.3435C22.3671 23.6942 23.6944 22.3669 24.3437 20.6879C24.6529 19.8927 24.864 18.984 24.9249 17.6537C24.9855 16.3204 25 15.8947 25 12.5C25 9.10511 24.9855 8.67939 24.9249 7.34634ZM22.6748 17.5512C22.6192 18.77 22.4155 19.4319 22.2445 19.8723C21.8239 20.9625 20.9623 21.8241 19.8721 22.2446C19.4317 22.4157 18.7698 22.6194 17.551 22.6749C16.2333 22.7352 15.8379 22.7478 12.5 22.7478C9.16195 22.7478 8.76675 22.7352 7.44877 22.6749C6.23016 22.6194 5.56831 22.4157 5.12772 22.2446C4.58488 22.0442 4.09374 21.7247 3.69053 21.3095C3.2753 20.9063 2.95582 20.4153 2.75536 19.8723C2.58427 19.4319 2.38056 18.77 2.32506 17.5512C2.26498 16.2333 2.2522 15.8379 2.2522 12.5002C2.2522 9.16233 2.26498 8.76713 2.32506 7.44896C2.38075 6.23016 2.58427 5.56831 2.75536 5.12791C2.95582 4.58488 3.27549 4.09374 3.69053 3.69053C4.09374 3.2753 4.58488 2.95582 5.12791 2.75555C5.56831 2.58427 6.23016 2.38075 7.44896 2.32506C8.76694 2.26498 9.16233 2.2522 12.5 2.2522H12.4998C15.8375 2.2522 16.2329 2.26498 17.551 2.32525C18.7698 2.38075 19.4315 2.58446 19.8721 2.75555C20.4149 2.95601 20.9061 3.27549 21.3093 3.69053C21.7245 4.09374 22.044 4.58488 22.2443 5.12791C22.4155 5.56831 22.6192 6.23016 22.6748 7.44896C22.7348 8.76694 22.7476 9.16233 22.7476 12.5C22.7476 15.8379 22.735 16.2331 22.6748 17.5512Z" fill="url(#paint0_linear_6901_2)"/>
<path d="M12.4989 6.08118C8.95388 6.08118 6.08008 8.95517 6.08008 12.5002C6.08008 16.0452 8.95388 18.919 12.4989 18.919C16.0441 18.919 18.9179 16.0452 18.9179 12.5002C18.9179 8.95517 16.0441 6.08118 12.4989 6.08118ZM12.4989 16.6668C10.1979 16.6666 8.33228 14.8012 8.33247 12.5C8.33247 10.199 10.1979 8.33337 12.4991 8.33337C14.8003 8.33356 16.6657 10.199 16.6657 12.5C16.6657 14.8012 14.8001 16.6668 12.4989 16.6668Z" fill="url(#paint1_linear_6901_2)"/>
<path d="M20.6719 5.82752C20.6719 6.65588 20.0004 7.32746 19.172 7.32746C18.3435 7.32746 17.6719 6.65588 17.6719 5.82752C17.6719 4.99897 18.3435 4.32739 19.172 4.32739C20.0004 4.32739 20.6719 4.99897 20.6719 5.82752Z" fill="url(#paint2_linear_6901_2)"/>
</g>
<g clip-path="url(#clip1_6901_2)">
<path d="M50.5 25C57.4036 25 63 19.4036 63 12.5C63 5.59644 57.4036 0 50.5 0C43.5964 0 38 5.59644 38 12.5C38 19.4036 43.5964 25 50.5 25Z" fill="#4D76A1"/>
<path fill-rule="evenodd" clip-rule="evenodd" d="M50.0285 17.9823H51.0096C51.0096 17.9823 51.306 17.9497 51.4573 17.7866C51.5965 17.6369 51.5921 17.3557 51.5921 17.3557C51.5921 17.3557 51.5729 16.0392 52.1839 15.8454C52.7862 15.6544 53.5596 17.1177 54.3794 17.6803C54.9993 18.1062 55.4703 18.0128 55.4703 18.0128L57.6623 17.9823C57.6623 17.9823 58.8089 17.9116 58.2652 17.0101C58.2207 16.9363 57.9486 16.3432 56.6355 15.1243C55.2611 13.8487 55.4452 14.055 57.1007 11.8484C58.109 10.5045 58.5121 9.68407 58.3862 9.33267C58.2661 8.99799 57.5246 9.08645 57.5246 9.08645L55.0565 9.10183C55.0565 9.10183 54.8736 9.07687 54.7379 9.15798C54.6053 9.23753 54.52 9.42292 54.52 9.42292C54.52 9.42292 54.1294 10.4628 53.6084 11.3472C52.5094 13.2134 52.07 13.3119 51.8904 13.196C51.4726 12.9259 51.5769 12.1111 51.5769 11.5322C51.5769 9.72373 51.8512 8.96969 51.0428 8.7745C50.7745 8.70965 50.5771 8.66687 49.891 8.65997C49.0104 8.65083 48.2651 8.66264 47.8431 8.86942C47.5623 9.0069 47.3457 9.31329 47.4776 9.33089C47.6407 9.35273 48.0102 9.43049 48.206 9.69721C48.4589 10.0413 48.45 10.814 48.45 10.814C48.45 10.814 48.5953 12.9429 48.1107 13.2074C47.778 13.3887 47.3216 13.0184 46.3419 11.3254C45.8399 10.4582 45.4608 9.49957 45.4608 9.49957C45.4608 9.49957 45.3878 9.32042 45.2574 9.2246C45.0992 9.10851 44.8782 9.07152 44.8782 9.07152L42.5329 9.0869C42.5329 9.0869 42.1809 9.0967 42.0516 9.24978C41.9367 9.38593 42.0425 9.66758 42.0425 9.66758C42.0425 9.66758 43.8786 13.9632 45.9575 16.1279C47.8638 18.1126 50.0285 17.9823 50.0285 17.9823Z" fill="white"/>
</g>
<g clip-path="url(#clip2_6901_2)">
<path d="M127.512 10.36C128.705 10.3556 129.656 9.39682 129.651 8.20065C129.647 7.00398 128.694 6.05181 127.5 6.05078C126.296 6.0495 125.335 7.01932 125.344 8.22674C125.353 9.41856 126.314 10.3643 127.512 10.36Z" fill="#FFB229"/>
<path d="M127.5 0C120.596 0 115 5.59667 115 12.5C115 19.4033 120.596 25 127.5 25C134.404 25 140 19.4033 140 12.5C140 5.59667 134.404 0 127.5 0ZM127.518 3.80128C129.953 3.80793 131.907 5.79949 131.894 8.26112C131.882 10.666 129.896 12.6151 127.465 12.6069C125.059 12.5987 123.086 10.6041 123.101 8.19437C123.114 5.75831 125.088 3.79463 127.518 3.80128ZM132.449 14.3368C131.911 14.8895 131.263 15.2895 130.543 15.5685C129.863 15.8322 129.117 15.965 128.379 16.0535C128.491 16.1747 128.543 16.2343 128.613 16.3038C129.615 17.3107 130.621 18.3125 131.619 19.3223C131.959 19.6665 132.03 20.0931 131.843 20.4928C131.639 20.9302 131.18 21.2176 130.73 21.1867C130.445 21.167 130.223 21.0256 130.026 20.8269C129.27 20.0662 128.499 19.3192 127.759 18.5442C127.543 18.3187 127.44 18.3616 127.249 18.5575C126.489 19.3407 125.716 20.1113 124.939 20.8778C124.59 21.222 124.174 21.2844 123.769 21.0875C123.339 20.8793 123.065 20.4396 123.086 19.9974C123.101 19.6992 123.248 19.4706 123.453 19.2665C124.445 18.277 125.433 17.2844 126.422 16.2926C126.487 16.2269 126.548 16.157 126.644 16.0547C125.295 15.9138 124.079 15.5818 123.038 14.7678C122.908 14.6665 122.775 14.5688 122.658 14.4552C122.202 14.0176 122.156 13.5161 122.516 13C122.825 12.5581 123.342 12.4399 123.881 12.6939C123.985 12.7427 124.084 12.8046 124.18 12.8701C126.12 14.2033 128.785 14.2399 130.733 12.9297C130.926 12.7824 131.132 12.6611 131.371 12.6C131.836 12.4803 132.27 12.6514 132.519 13.0581C132.804 13.5228 132.801 13.976 132.449 14.3368Z" fill="#FFB229"/>
</g>
<g clip-path="url(#clip3_6901_2)">
<path d="M89.5 25C96.4036 25 102 19.4036 102 12.5C102 5.59644 96.4036 0 89.5 0C82.5964 0 77 5.59644 77 12.5C77 19.4036 82.5964 25 89.5 25Z" fill="#3B5998"/>
<path d="M92.6428 12.9892H90.4124V21.1607H87.033V12.9892H85.4258V10.1175H87.033V8.25912C87.033 6.9302 87.6643 4.84924 90.4424 4.84924L92.9457 4.85972V7.64725H91.1294C90.8315 7.64725 90.4126 7.7961 90.4126 8.43003V10.1202H92.9381L92.6428 12.9892Z" fill="white"/>
</g>
<defs>
<linearGradient id="paint0_linear_6901_2" x1="2.09796" y1="22.9018" x2="22.902" y2="2.09776" gradientUnits="userSpaceOnUse">
<stop stop-color="#FFD600"/>
<stop offset="0.5" stop-color="#FF0100"/>
<stop offset="1" stop-color="#D800B9"/>
</linearGradient>
<linearGradient id="paint1_linear_6901_2" x1="7.96015" y1="17.0389" x2="17.0378" y2="7.96125" gradientUnits="userSpaceOnUse">
<stop stop-color="#FF6400"/>
<stop offset="0.5" stop-color="#FF0100"/>
<stop offset="1" stop-color="#FD0056"/>
</linearGradient>
<linearGradient id="paint2_linear_6901_2" x1="18.1113" y1="6.88807" x2="20.2326" y2="4.7668" gradientUnits="userSpaceOnUse">
<stop stop-color="#F30072"/>
<stop offset="1" stop-color="#E50097"/>
</linearGradient>
<clipPath id="clip0_6901_2">
<rect width="25" height="25" fill="white"/>
</clipPath>
<clipPath id="clip1_6901_2">
<rect width="25" height="25" fill="white" transform="translate(38)"/>
</clipPath>
<clipPath id="clip2_6901_2">
<rect width="25" height="25" fill="white" transform="translate(115)"/>
</clipPath>
<clipPath id="clip3_6901_2">
<rect width="25" height="25" fill="white" transform="translate(77)"/>
</clipPath>
</defs>
</svg>
