<svg width="65" height="65" viewBox="0 0 65 65" fill="none" xmlns="http://www.w3.org/2000/svg">
<g clip-path="url(#clip0_173_1459)">
<path d="M63.096 37.1966H50.6564V24.8839C50.6564 20.3968 47.9024 16.2492 42.9016 13.205C33.3508 7.39156 18.502 7.37087 8.87681 12.6366C4.10851 15.2453 0.9425 18.8945 0.193077 22.9102C-0.0628232 24.2729 0.00940273 31.9725 0.00940273 44.1781C0.00940273 47.8069 2.60128 51.1491 7.07751 53.5893C9.60275 54.9653 12.3956 55.8276 15.3784 56.1521C15.5311 56.1686 63.0931 56.2369 63.0931 56.2369C64.1546 56.2369 65 55.378 65 54.3329V39.1007C65 38.0491 64.1475 37.1966 63.096 37.1966ZM46.8483 37.1966H41.7944C43.6496 36.1934 45.3896 34.9648 46.8483 33.4769V37.1966ZM3.936 23.611C5.09149 17.4204 14.5891 12.5713 25.3962 12.5713C31.2904 12.5713 36.804 13.9515 40.9215 16.4579C48.8321 21.2731 48.8144 28.5054 40.9215 33.31C34.7371 37.0745 26.0202 37.9609 18.7926 36.5876C10.0501 34.9292 3.81732 30.1164 3.81732 24.8839C3.81745 24.4584 3.85718 24.0308 3.936 23.611ZM61.192 52.4259L52.6873 52.4128V49.2554C52.6873 48.2039 51.8348 47.3514 50.7833 47.3514C49.7318 47.3514 48.8793 48.2039 48.8793 49.2554V52.4068L42.5326 52.3969V49.2553C42.5326 48.2038 41.6801 47.3513 40.6285 47.3513C39.577 47.3513 38.7245 48.2038 38.7245 49.2553V52.3909L32.3778 52.381V49.2553C32.3778 48.2038 31.5253 47.3513 30.4738 47.3513C29.4222 47.3513 28.5697 48.2038 28.5697 49.2553V52.3752L22.223 52.3653V49.2553C22.223 48.2038 21.3705 47.3513 20.319 47.3513C19.2674 47.3513 18.4149 48.2038 18.4149 49.2553V52.3593L15.6913 52.3551C13.2429 52.0767 10.9582 51.3668 8.89979 50.2454C5.70421 48.5033 3.81745 46.3486 3.81745 44.1779V33.4741C4.32125 33.9942 5.90299 35.2097 5.95338 35.2483C11.2199 39.2828 18.6749 41.0046 25.3964 41.0046H61.192V52.4259Z" fill="#FF5555"/>
<path d="M22.6119 31.6006C28.7491 32.7992 35.4248 29.8326 35.4248 24.8839C35.4248 20.9691 31.0201 17.9025 25.397 17.9025C20.2731 17.9025 16.0908 20.4518 15.4529 23.9607C15.3973 24.2639 15.3691 24.5745 15.3691 24.8839C15.3691 28.0576 18.2801 30.757 22.6119 31.6006ZM19.199 24.645C19.4566 23.2278 22.0086 21.7106 25.397 21.7106C28.9569 21.7106 31.6168 23.386 31.6168 24.8839C31.6168 26.8059 27.5223 28.6795 23.3408 27.863C20.9672 27.4007 19.1772 26.12 19.1772 24.8839C19.1772 24.8033 19.1842 24.7263 19.199 24.645Z" fill="#FF5555"/>
</g>
<defs>
<clipPath id="clip0_173_1459">
<rect width="65" height="65" fill="white"/>
</clipPath>
</defs>
</svg>
