<svg width="58" height="58" viewBox="0 0 58 58" fill="none" xmlns="http://www.w3.org/2000/svg">
<path d="M52.2187 13.8243H39.5745V9.53023C39.5745 7.08583 37.5864 5.09766 35.142 5.09766H22.858C20.4136 5.09766 18.4255 7.08583 18.4255 9.53023V13.8243H5.78133C2.59352 13.8243 0 16.4178 0 19.6056V47.1639C0 50.3517 2.59352 52.9453 5.78133 52.9453H52.2187C55.4065 52.9453 58 50.3517 58 47.1639V19.6056C58 16.4178 55.4065 13.8243 52.2187 13.8243ZM21.8686 9.53023C21.8686 8.98462 22.3124 8.54079 22.858 8.54079H35.142C35.6876 8.54079 36.1314 8.98462 36.1314 9.53023V13.8243H21.8686V9.53023ZM3.44313 19.6056C3.44313 18.3166 4.49231 17.2674 5.78133 17.2674H52.2187C53.5077 17.2674 54.5569 18.3166 54.5569 19.6056V24.7188H3.44313V19.6056ZM22.8576 28.1619H35.1424V29.6279C35.1424 31.1953 33.8676 32.4701 32.2998 32.4701H25.6998C24.1324 32.4701 22.8576 31.1953 22.8576 29.6279V28.1619ZM54.5569 47.1639C54.5569 48.4534 53.5077 49.5021 52.2187 49.5021H5.78133C4.49231 49.5021 3.44313 48.4534 3.44313 47.1639V28.1619H19.414V29.6279C19.414 33.0936 22.2341 35.9133 25.6998 35.9133H32.2998C35.7659 35.9133 38.5855 33.0936 38.5855 29.6279V28.1619H54.5569V47.1639Z" fill="#FF5555"/>
</svg>
