<svg width="20" height="20" viewBox="0 0 20 20" fill="none" xmlns="http://www.w3.org/2000/svg">
<g clip-path="url(#clip0_173_1378)">
<path d="M10.0025 0H9.9975C4.48375 0 0 4.485 0 10C0 12.1875 0.705 14.215 1.90375 15.8612L0.6575 19.5763L4.50125 18.3475C6.0825 19.395 7.96875 20 10.0025 20C15.5162 20 20 15.5138 20 10C20 4.48625 15.5162 0 10.0025 0Z" fill="#4CAF50"/>
<path d="M15.8207 14.1213C15.5795 14.8026 14.622 15.3676 13.8582 15.5326C13.3357 15.6438 12.6532 15.7326 10.3557 14.7801C7.41695 13.5626 5.52445 10.5763 5.37695 10.3826C5.2357 10.1888 4.18945 8.80135 4.18945 7.36635C4.18945 5.93135 4.9182 5.2326 5.21195 4.9326C5.4532 4.68635 5.85195 4.57385 6.23445 4.57385C6.3582 4.57385 6.46945 4.5801 6.56945 4.5851C6.8632 4.5976 7.0107 4.6151 7.20445 5.07885C7.4457 5.6601 8.0332 7.0951 8.1032 7.2426C8.17445 7.3901 8.2457 7.5901 8.1457 7.78385C8.05195 7.98385 7.96945 8.0726 7.82195 8.2426C7.67445 8.4126 7.53445 8.5426 7.38695 8.7251C7.25195 8.88385 7.09945 9.05385 7.26945 9.3476C7.43945 9.6351 8.02695 10.5938 8.89195 11.3638C10.0082 12.3576 10.9132 12.6751 11.237 12.8101C11.4782 12.9101 11.7657 12.8863 11.942 12.6988C12.1657 12.4576 12.442 12.0576 12.7232 11.6638C12.9232 11.3814 13.1757 11.3463 13.4407 11.4463C13.7107 11.5401 15.1395 12.2463 15.4332 12.3926C15.727 12.5401 15.9207 12.6101 15.992 12.7338C16.062 12.8576 16.062 13.4388 15.8207 14.1213Z" fill="#FAFAFA"/>
</g>
<defs>
<clipPath id="clip0_173_1378">
<rect width="20" height="20" fill="white"/>
</clipPath>
</defs>
</svg>
